<?xml version="1.0" encoding="utf-8"?>
<!-- Generator: Adobe Illustrator 16.0.0, SVG Export Plug-In . SVG Version: 6.00 Build 0)  -->
<!DOCTYPE svg PUBLIC "-//W3C//DTD SVG 1.1//EN" "http://www.w3.org/Graphics/SVG/1.1/DTD/svg11.dtd">
<svg version="1.1" id="Calque_1" xmlns="http://www.w3.org/2000/svg" xmlns:xlink="http://www.w3.org/1999/xlink" x="0px" y="0px"
	 width="307.382px" height="307.382px" viewBox="267.059 144.09 307.382 307.382"
	 enable-background="new 267.059 144.09 307.382 307.382" xml:space="preserve">
<g>
	<path fill="#006DAC" d="M420.749,144.09c-84.88,0-153.69,68.81-153.69,153.691s68.811,153.691,153.69,153.691
		c84.883,0,153.692-68.811,153.692-153.691S505.632,144.09,420.749,144.09z M366.618,336.125c0,3.75-3.017,6.768-6.767,6.768
		h-13.533c-3.75,0-6.766-3.018-6.766-6.768v-29.32h-6.768c-1.24,0-2.255-1.016-2.255-2.256v-13.534c0-1.24,1.015-2.255,2.255-2.255
		h6.768v-29.322c0-3.749,3.016-6.766,6.766-6.766h13.533c3.75,0,6.767,3.017,6.767,6.766V336.125z M465.859,354.169
		c0,3.748-3.016,6.766-6.766,6.766H445.56c-3.75,0-6.766-3.018-6.766-6.766v-47.365h-36.089v47.365c0,3.748-3.016,6.766-6.766,6.766
		h-13.533c-3.75,0-6.766-3.018-6.766-6.766V241.395c0-3.75,3.016-6.767,6.766-6.767h13.533c3.75,0,6.766,3.017,6.766,6.767v47.365
		h36.089v-47.365c0-3.75,3.016-6.767,6.766-6.767h13.533c3.75,0,6.766,3.017,6.766,6.767V354.169z M510.968,304.548
		c0,1.24-1.014,2.256-2.254,2.256h-6.768v29.32c0,3.75-3.016,6.768-6.766,6.768h-13.533c-3.75,0-6.768-3.018-6.768-6.768v-76.687
		c0-3.749,3.018-6.766,6.768-6.766h13.533c3.75,0,6.766,3.017,6.766,6.766v29.322h6.768c1.24,0,2.254,1.015,2.254,2.255V304.548z"/>
	<path d="M359.852,252.672h-13.533c-3.75,0-6.766,3.017-6.766,6.766v29.322h-6.768c-1.24,0-2.255,1.015-2.255,2.255v13.534
		c0,1.24,1.015,2.256,2.255,2.256h6.768v29.32c0,3.75,3.016,6.768,6.766,6.768h13.533c3.75,0,6.767-3.018,6.767-6.768v-76.687
		C366.618,255.688,363.602,252.672,359.852,252.672z"/>
	<path d="M508.714,288.76h-6.768v-29.322c0-3.749-3.016-6.766-6.766-6.766h-13.533c-3.75,0-6.768,3.017-6.768,6.766v76.687
		c0,3.75,3.018,6.768,6.768,6.768h13.533c3.75,0,6.766-3.018,6.766-6.768v-29.32h6.768c1.24,0,2.254-1.016,2.254-2.256v-13.534
		C510.968,289.774,509.955,288.76,508.714,288.76z"/>
	<path d="M459.093,234.628H445.56c-3.75,0-6.766,3.017-6.766,6.767v47.365h-36.089v-47.365c0-3.75-3.016-6.767-6.766-6.767h-13.533
		c-3.75,0-6.766,3.017-6.766,6.767v112.775c0,3.748,3.016,6.766,6.766,6.766h13.533c3.75,0,6.766-3.018,6.766-6.766v-47.365h36.089
		v47.365c0,3.748,3.016,6.766,6.766,6.766h13.533c3.75,0,6.766-3.018,6.766-6.766V241.395
		C465.859,237.645,462.843,234.628,459.093,234.628z"/>
</g>
</svg>
