<?xml version="1.0" encoding="utf-8"?>
<!-- Generator: Adobe Illustrator 16.0.0, SVG Export Plug-In . SVG Version: 6.00 Build 0)  -->
<!DOCTYPE svg PUBLIC "-//W3C//DTD SVG 1.1//EN" "http://www.w3.org/Graphics/SVG/1.1/DTD/svg11.dtd">
<svg version="1.1" id="Calque_1" xmlns="http://www.w3.org/2000/svg" xmlns:xlink="http://www.w3.org/1999/xlink" x="0px" y="0px"
	 width="307.382px" height="307.382px" viewBox="267.647 145.125 307.382 307.382"
	 enable-background="new 267.647 145.125 307.382 307.382" xml:space="preserve">
<g>
	<path fill="#006DAC" d="M421.337,145.125c-84.88,0-153.69,68.81-153.69,153.691c0,84.881,68.81,153.691,153.69,153.691
		c84.883,0,153.691-68.811,153.691-153.691C575.029,213.935,506.22,145.125,421.337,145.125z M421.338,391.515
		c-51.198,0-92.701-41.502-92.701-92.699c0-51.199,41.502-92.701,92.701-92.701c51.199,0,92.701,41.502,92.701,92.701
		C514.039,350.013,472.537,391.515,421.338,391.515z"/>
	<path fill="#006DAC" d="M433.302,225.1v8.111c0,3.199-2.594,5.795-5.793,5.795h-9.05c-1.936,0-3.746,0.967-4.818,2.578
		l-3.021,4.526c-0.8,1.2-2.019,2.056-3.417,2.407l-5.401,1.35c-2.579,0.646-4.388,2.964-4.388,5.621v1.645
		c0,3.2,2.594,5.795,5.794,5.795h33.66c1.537,0,3.011,0.609,4.097,1.697l2.587,2.586c1.088,1.088,2.561,1.697,4.097,1.697h3.771
		c3.2,0,5.794,2.594,5.794,5.793c0,2.494-1.596,4.707-3.962,5.496l-17.685,5.895c-1.457,0.485-3.046,0.373-4.422-0.314l-5.502-2.751
		c-2.834-1.421-5.962-2.157-9.132-2.157h-0.332c-4.418,0.001-8.718,1.435-12.253,4.086l-10.309,7.733
		c-5.139,3.858-8.167,9.911-8.167,16.334v5.256c0.001,5.416,2.152,10.609,5.98,14.439c3.832,3.828,9.023,5.98,14.439,5.98h9.674
		c3.2,0,5.794,2.596,5.794,5.795v11.172c0,4.578,1.066,9.096,3.114,13.191c1.757,3.514,5.349,5.734,9.278,5.734
		c3.467,0,6.707-1.734,8.631-4.621l4.869-7.307c2.666-3.996,5.803-7.656,9.346-10.9c0.923-0.848,1.548-1.971,1.779-3.199
		l1.607-8.535c0.164-0.869,0.527-1.691,1.057-2.402l7.006-9.338c0.751-1.002,1.158-2.223,1.158-3.477v-4.238
		c0-3.199-2.594-5.793-5.793-5.793h-3.068c-1.938,0-3.746-0.969-4.818-2.58l-4.949-7.424c-2.119-3.18-0.641-7.501,2.986-8.708
		l0.99-0.329c1.697-0.563,3.559-0.314,5.047,0.677l6.807,4.537c1.729,1.155,3.945,1.294,5.805,0.363l5.752-2.879
		c1.963-0.979,3.203-2.986,3.203-5.18v-2.59c0-3.201,2.596-5.795,5.795-5.795h6.889C486.699,252.099,462.916,229.899,433.302,225.1z
		"/>
	<path d="M421.338,206.115c-51.198,0-92.701,41.502-92.701,92.701c0,51.197,41.502,92.699,92.701,92.699
		c51.199,0,92.701-41.502,92.701-92.699C514.039,247.617,472.537,206.115,421.338,206.115z M486.939,280.873
		c-3.199,0-5.795,2.594-5.795,5.795v2.59c0,2.193-1.24,4.201-3.203,5.18l-5.752,2.879c-1.859,0.931-4.076,0.792-5.805-0.363
		l-6.807-4.537c-1.488-0.991-3.35-1.24-5.047-0.677l-0.99,0.329c-3.627,1.207-5.105,5.528-2.986,8.708l4.949,7.424
		c1.072,1.611,2.881,2.58,4.818,2.58h3.068c3.199,0,5.793,2.594,5.793,5.793v4.238c0,1.254-0.407,2.475-1.158,3.477l-7.006,9.338
		c-0.529,0.711-0.893,1.533-1.057,2.402l-1.607,8.535c-0.231,1.229-0.856,2.352-1.779,3.199c-3.543,3.244-6.68,6.904-9.346,10.9
		l-4.869,7.307c-1.924,2.887-5.164,4.621-8.631,4.621c-3.93,0-7.521-2.221-9.278-5.734c-2.048-4.096-3.114-8.613-3.114-13.191
		v-11.172c0-3.199-2.594-5.795-5.794-5.795h-9.674c-5.416,0-10.608-2.152-14.439-5.98c-3.829-3.83-5.979-9.023-5.98-14.439v-5.256
		c0-6.424,3.028-12.476,8.167-16.334l10.309-7.733c3.536-2.651,7.835-4.085,12.253-4.086h0.332c3.17,0,6.298,0.736,9.132,2.157
		l5.502,2.751c1.376,0.688,2.965,0.8,4.422,0.314l17.685-5.895c2.366-0.789,3.962-3.002,3.962-5.496
		c0-3.199-2.594-5.793-5.794-5.793h-3.771c-1.536,0-3.009-0.609-4.097-1.697l-2.587-2.586c-1.086-1.088-2.56-1.697-4.097-1.697
		h-33.66c-3.2,0-5.794-2.595-5.794-5.795v-1.645c0-2.657,1.809-4.975,4.388-5.621l5.401-1.35c1.398-0.352,2.617-1.207,3.417-2.407
		l3.021-4.526c1.072-1.611,2.882-2.578,4.818-2.578h9.05c3.199,0,5.793-2.596,5.793-5.795V225.1
		c29.613,4.8,53.396,26.999,60.525,55.773H486.939z"/>
</g>
</svg>
