<?xml version="1.0" encoding="utf-8"?>
<!-- Generator: Adobe Illustrator 16.0.0, SVG Export Plug-In . SVG Version: 6.00 Build 0)  -->
<!DOCTYPE svg PUBLIC "-//W3C//DTD SVG 1.1//EN" "http://www.w3.org/Graphics/SVG/1.1/DTD/svg11.dtd">
<svg version="1.1" id="Calque_1" xmlns="http://www.w3.org/2000/svg" xmlns:xlink="http://www.w3.org/1999/xlink" x="0px" y="0px"
	 width="307.254px" height="307.383px" viewBox="267.919 145.063 307.254 307.383"
	 enable-background="new 267.919 145.063 307.254 307.383" xml:space="preserve">
<g>
	<polygon fill="#006DAC" points="389.026,256.97 414.991,282.933 414.991,262.649 389.026,252.71 	"/>
	<polygon fill="#006DAC" points="350.082,344.189 376.045,358.794 376.045,327.154 350.082,314.171 	"/>
	<polygon fill="#006DAC" points="421.482,234.658 400.388,243.177 421.482,251.29 442.578,243.177 	"/>
	<path fill="#006DAC" d="M421.482,145.063c-84.881,0-153.691,68.81-153.691,153.691c0,84.882,68.81,153.692,153.691,153.692
		c84.883,0,153.691-68.811,153.691-153.692C575.173,213.874,506.365,145.063,421.482,145.063z M460.628,377.253l-39.146-19.674
		l-39.149,19.674l-45.232-25.355v-52.535l38.944-16.834v-2.03l18.662,18.865l-12.171-5.476l-23.528,10.142l23.528,11.766
		l19.27-9.332l9.737,9.736l-22.517,10.955v32.25l25.965-12.982v-26.977l12.983,12.982v13.994l25.961,12.982v-1.014l14.402,14.4
		L460.628,377.253z M501.199,387.802L332.436,219.039l9.331-9.331l34.278,34.281v-5.073l45.437-18.255l45.436,18.255v43.612
		l38.947,16.834v52.535l-13.998,7.912l18.662,18.662L501.199,387.802z"/>
	<polygon fill="#006DAC" points="460.427,293.887 436.898,304.433 460.427,315.794 483.957,304.029 	"/>
	<polygon fill="#006DAC" points="453.935,252.71 427.974,262.649 427.974,294.09 453.935,282.528 	"/>
	<polygon fill="#006DAC" points="492.88,314.171 466.917,327.154 466.917,334.859 482.335,350.275 492.88,344.189 	"/>
	<path d="M505.865,351.898v-52.535l-38.947-16.834v-43.612l-45.436-18.255l-45.437,18.255v5.073l-34.278-34.281l-9.331,9.331
		l168.763,168.763l9.33-9.33l-18.662-18.662L505.865,351.898z M414.991,282.933l-25.965-25.963v-4.26l25.965,9.939V282.933z
		 M400.388,243.177l21.094-8.519l21.096,8.519l-21.096,8.113L400.388,243.177z M427.974,262.649l25.961-9.939v29.818l-25.961,11.562
		V262.649z M436.898,304.433l23.529-10.546l23.529,10.142l-23.529,11.766L436.898,304.433z M466.917,334.859v-7.705l25.963-12.982
		v30.018l-10.545,6.086L466.917,334.859z"/>
	<path d="M453.935,359.404l-25.961-12.982v-13.994l-12.983-12.982v26.977l-25.965,12.982v-32.25l22.517-10.955l-9.737-9.736
		l-19.27,9.332l-23.528-11.766l23.528-10.142l12.171,5.476l-18.662-18.865v2.03l-38.944,16.834v52.535l45.232,25.355l39.149-19.674
		l39.146,19.674l7.709-4.463l-14.402-14.4V359.404z M376.045,358.794l-25.963-14.605v-30.018l25.963,12.982V358.794z"/>
</g>
</svg>
